<svg width="90" height="24" viewBox="0 0 90 24" fill="none" xmlns="http://www.w3.org/2000/svg">
<path d="M68.5366 0.383789H73.167L74.0559 10.8085L82.2183 0.383789H88.2734L78.9237 10.7928L89.0748 22.7837H82.6042L74.0559 10.8085L73.167 22.7837H68.5366L69.4255 10.8085L68.5366 0.383789Z" fill="url(#paint0_linear_2815_20803)"/>
<path d="M71.2033 22.7859H66.1157L64.0532 17.8901H53.8179L51.7372 22.7859H46.7129L55.7615 0.385742H62.1547L71.2033 22.7859ZM55.3961 14.1774H62.4898L58.9586 5.79373L55.3961 14.1774Z" fill="url(#paint1_linear_2815_20803)"/>
<path d="M37.2585 23.168C35.1252 23.168 33.2585 22.6987 31.6585 21.76C30.0798 20.8 28.8532 19.4667 27.9785 17.76C27.1038 16.0533 26.6665 14.0587 26.6665 11.776C26.6665 9.472 27.1145 7.43467 28.0105 5.664C28.9278 3.89333 30.2398 2.50667 31.9465 1.504C33.6532 0.501333 35.6905 0 38.0585 0C40.7252 0 42.9332 0.64 44.6825 1.92C46.4532 3.2 47.5945 4.97067 48.1065 7.232H42.7625C42.4425 6.336 41.8772 5.64267 41.0665 5.152C40.2772 4.66133 39.2638 4.416 38.0265 4.416C36.6185 4.416 35.4345 4.72533 34.4745 5.344C33.5145 5.94133 32.7892 6.79467 32.2985 7.904C31.8078 8.992 31.5625 10.2827 31.5625 11.776C31.5625 13.312 31.8078 14.6133 32.2985 15.68C32.7892 16.7467 33.5038 17.5573 34.4425 18.112C35.3812 18.6453 36.4905 18.912 37.7705 18.912C39.6052 18.912 40.6221 18.2342 41.6955 17.0895C42.5561 16.1718 43.1094 15.2858 43.6905 13.856H38.4745V10.272H48.4905V22.784H44.0745V19.3031C44.0745 19.3031 43.1219 20.7675 42.2794 21.4755C41.4832 22.1445 40.7892 22.6027 39.9785 22.816C39.1892 23.0507 38.2825 23.168 37.2585 23.168Z" fill="#6D7882"/>
<path d="M12.6668 1.77734H7.3335H4.66683L2.00016 4.44401V7.11068V12.444L23.3335 23.1107L12.6668 1.77734Z" fill="url(#paint2_linear_2815_20803)"/>
<defs>
<linearGradient id="paint0_linear_2815_20803" x1="73.3612" y1="18.0694" x2="68.5462" y2="21.2921" gradientUnits="userSpaceOnUse">
<stop stop-color="#6D7882"/>
<stop offset="1" stop-color="#6D7882" stop-opacity="0.08"/>
</linearGradient>
<linearGradient id="paint1_linear_2815_20803" x1="52.4659" y1="18.0715" x2="47.3872" y2="22.1248" gradientUnits="userSpaceOnUse">
<stop stop-color="#6D7882"/>
<stop offset="1" stop-color="#6D7882" stop-opacity="0.08"/>
</linearGradient>
<linearGradient id="paint2_linear_2815_20803" x1="7.74375" y1="6.70042" x2="23.9974" y2="21.0652" gradientUnits="userSpaceOnUse">
<stop stop-color="#6D7882"/>
<stop offset="1" stop-color="#6D7882" stop-opacity="0.08"/>
</linearGradient>
</defs>
</svg>
