<svg width="90" height="24" viewBox="0 0 90 24" fill="none" xmlns="http://www.w3.org/2000/svg">
<path d="M68.5364 0.383789H73.1667L74.0556 10.8085L82.2181 0.383789H88.2732L78.9234 10.7928L89.0746 22.7837H82.604L74.0556 10.8085L73.1667 22.7837H68.5364L69.4253 10.8085L68.5364 0.383789Z" fill="url(#paint0_linear_2815_34488)"/>
<path d="M71.2031 22.7859H66.1154L64.0529 17.8901H53.8177L51.737 22.7859H46.7126L55.7613 0.385742H62.1545L71.2031 22.7859ZM55.3958 14.1774H62.4896L58.9583 5.79373L55.3958 14.1774Z" fill="url(#paint1_linear_2815_34488)"/>
<path d="M37.2587 23.168C35.1254 23.168 33.2587 22.6987 31.6587 21.76C30.0801 20.8 28.8534 19.4667 27.9787 17.76C27.1041 16.0533 26.6667 14.0587 26.6667 11.776C26.6667 9.472 27.1147 7.43467 28.0107 5.664C28.9281 3.89333 30.2401 2.50667 31.9467 1.504C33.6534 0.501333 35.6907 0 38.0587 0C40.7254 0 42.9334 0.64 44.6827 1.92C46.4534 3.2 47.5947 4.97067 48.1067 7.232H42.7627C42.4427 6.336 41.8774 5.64267 41.0667 5.152C40.2774 4.66133 39.2641 4.416 38.0267 4.416C36.6187 4.416 35.4347 4.72533 34.4747 5.344C33.5147 5.94133 32.7894 6.79467 32.2987 7.904C31.8081 8.992 31.5627 10.2827 31.5627 11.776C31.5627 13.312 31.8081 14.6133 32.2987 15.68C32.7894 16.7467 33.5041 17.5573 34.4427 18.112C35.3814 18.6453 36.4907 18.912 37.7707 18.912C39.6054 18.912 40.6224 18.2342 41.6958 17.0895C42.5564 16.1718 43.1097 15.2858 43.6907 13.856H38.4747V10.272H48.4907V22.784H44.0747V19.3031C44.0747 19.3031 43.1222 20.7675 42.2796 21.4755C41.4834 22.1445 40.7894 22.6027 39.9787 22.816C39.1894 23.0507 38.2827 23.168 37.2587 23.168Z" fill="#F5F7FA"/>
<path d="M12.6666 1.77734H7.33325H4.66659L1.99992 4.44401V7.11068V12.444L23.3333 23.1107L12.6666 1.77734Z" fill="url(#paint2_linear_2815_34488)"/>
<defs>
<linearGradient id="paint0_linear_2815_34488" x1="73.361" y1="18.0694" x2="68.546" y2="21.2921" gradientUnits="userSpaceOnUse">
<stop stop-color="#F5F7FA"/>
<stop offset="1" stop-color="white" stop-opacity="0.08"/>
</linearGradient>
<linearGradient id="paint1_linear_2815_34488" x1="52.4657" y1="18.0715" x2="47.3869" y2="22.1248" gradientUnits="userSpaceOnUse">
<stop stop-color="#F5F7FA"/>
<stop offset="1" stop-color="white" stop-opacity="0.08"/>
</linearGradient>
<linearGradient id="paint2_linear_2815_34488" x1="7.74351" y1="6.70042" x2="23.9972" y2="21.0652" gradientUnits="userSpaceOnUse">
<stop stop-color="#27EA67"/>
<stop offset="1" stop-color="#27EA67" stop-opacity="0.08"/>
</linearGradient>
</defs>
</svg>
