<svg width="640" height="264" viewBox="0 0 640 264" fill="none" xmlns="http://www.w3.org/2000/svg">
<g clip-path="url(#clip0_1_1610)">
<path d="M402.417 99.7627L402.437 99.9912L404.755 127.188L427.17 99.8545L427.246 99.7627H445.218L444.804 100.188L417.882 127.792L444.816 159.607L445.165 160.019H427.235L427.16 159.914L404.756 128.529L402.437 159.787L402.42 160.019H389.566L389.586 159.751L391.956 127.824L389.586 100.034L389.563 99.7627H402.417Z" fill="url(#paint0_linear_1_1610)" stroke="url(#paint1_linear_1_1610)" stroke-width="0.5"/>
<path d="M372.979 99.7666L373.042 99.9229L397.181 159.68L397.32 160.023H383.211L383.146 159.87L377.709 146.963H350.736L345.25 159.871L345.185 160.023H331.245L331.385 159.68L355.523 99.9229L355.587 99.7666H372.979ZM355.158 136.559H373.327L364.282 115.084L355.158 136.559Z" fill="url(#paint2_linear_1_1610)" stroke="url(#paint3_linear_1_1610)" stroke-width="0.5"/>
<path d="M308.509 99.7832C315.542 99.7832 321.388 101.472 326.027 104.866L326.463 105.188C330.911 108.556 333.792 113.146 335.104 118.944L335.174 119.25H320.669L320.61 119.084C319.79 116.788 318.345 115.016 316.269 113.759L316.266 113.757C314.246 112.502 311.638 111.864 308.425 111.864C304.769 111.864 301.714 112.668 299.245 114.259L299.241 114.261C296.769 115.799 294.899 117.996 293.631 120.863L293.63 120.865C292.361 123.679 291.723 127.028 291.723 130.917C291.723 134.92 292.362 138.296 293.63 141.052C294.897 143.806 296.738 145.892 299.152 147.318C301.569 148.691 304.433 149.382 307.753 149.382C310.126 149.382 311.956 148.944 313.536 148.145C315.119 147.344 316.467 146.173 317.865 144.682C320.028 142.375 321.442 140.147 322.905 136.622H309.35V126.723H336.118V160.037H324.036V151.499C323.774 151.891 323.413 152.415 322.986 152.989C322.092 154.194 320.898 155.642 319.732 156.552C317.594 158.222 314.929 159.09 312.477 159.543C310.021 159.996 307.758 160.037 306.41 160.037C300.798 160.037 295.85 159.312 291.598 156.817L291.594 156.815C287.424 154.28 284.17 151.251 281.851 146.725C279.535 142.207 278.382 136.936 278.382 130.917C278.382 124.842 279.563 119.458 281.934 114.774L281.935 114.772C284.362 110.087 287.836 106.415 292.353 103.762C296.874 101.106 302.263 99.7832 308.509 99.7832Z" fill="url(#paint4_linear_1_1610)" stroke="url(#paint5_linear_1_1610)" stroke-width="0.5"/>
<path d="M210.096 132.341L210.235 132.409L267.146 160.865L267.816 161.2L267.481 160.529L238.957 103.48H217.357L210.096 110.741V132.341Z" fill="url(#paint6_linear_1_1610)" stroke="url(#paint7_linear_1_1610)" stroke-width="0.5"/>
<path d="M25.8262 103.297H277.326" stroke="url(#paint8_linear_1_1610)" stroke-width="0.125"/>
<path d="M25.8262 161.652H277.326" stroke="url(#paint9_linear_1_1610)" stroke-width="0.125"/>
<path d="M209.904 -18.814V281.186" stroke="url(#paint10_linear_1_1610)" stroke-width="0.125"/>
<path d="M268.26 -18.814V281.186" stroke="url(#paint11_linear_1_1610)" stroke-width="0.125"/>
<path d="M278.198 -18.814V281.186" stroke="url(#paint12_linear_1_1610)" stroke-width="0.125"/>
<path d="M81.4482 -211.795L425.429 475.759" stroke="url(#paint13_linear_1_1610)" stroke-width="0.125"/>
<path d="M370.945 -53.5356L-1.03416 326.037" stroke="url(#paint14_linear_1_1610)" stroke-width="0.125"/>
<path d="M-105.871 -25.2812L584.01 319.647" stroke="url(#paint15_linear_1_1610)" stroke-width="0.125"/>
<path d="M336.297 -19V281" stroke="url(#paint16_linear_1_1610)" stroke-width="0.125"/>
<path d="M389.352 -19V281" stroke="url(#paint17_linear_1_1610)" stroke-width="0.125"/>
<path d="M445.746 -19V281" stroke="url(#paint18_linear_1_1610)" stroke-width="0.125"/>
<path d="M626.75 160.217H268.342" stroke="url(#paint19_linear_1_1610)" stroke-width="0.125"/>
<path d="M626.75 99.5762H268.342" stroke="url(#paint20_linear_1_1610)" stroke-width="0.125"/>
</g>
<defs>
<linearGradient id="paint0_linear_1_1610" x1="417.23" y1="100.013" x2="417.23" y2="159.769" gradientUnits="userSpaceOnUse">
<stop stop-color="white" stop-opacity="0.48"/>
<stop offset="1" stop-color="white" stop-opacity="0.16"/>
</linearGradient>
<linearGradient id="paint1_linear_1_1610" x1="432.9" y1="106.043" x2="391.585" y2="159.769" gradientUnits="userSpaceOnUse">
<stop stop-color="white"/>
<stop offset="1" stop-color="white" stop-opacity="0"/>
</linearGradient>
<linearGradient id="paint2_linear_1_1610" x1="364.283" y1="100.017" x2="364.283" y2="159.773" gradientUnits="userSpaceOnUse">
<stop stop-color="white" stop-opacity="0.48"/>
<stop offset="1" stop-color="white" stop-opacity="0.16"/>
</linearGradient>
<linearGradient id="paint3_linear_1_1610" x1="382.968" y1="106.047" x2="344.026" y2="166.431" gradientUnits="userSpaceOnUse">
<stop stop-color="white"/>
<stop offset="1" stop-color="white" stop-opacity="0"/>
</linearGradient>
<linearGradient id="paint4_linear_1_1610" x1="307.25" y1="100.033" x2="307.25" y2="159.787" gradientUnits="userSpaceOnUse">
<stop stop-color="white" stop-opacity="0.48"/>
<stop offset="1" stop-color="white" stop-opacity="0.16"/>
</linearGradient>
<linearGradient id="paint5_linear_1_1610" x1="323.62" y1="106.063" x2="282.803" y2="161.512" gradientUnits="userSpaceOnUse">
<stop stop-color="white"/>
<stop offset="1" stop-color="white" stop-opacity="0"/>
</linearGradient>
<linearGradient id="paint6_linear_1_1610" x1="238.802" y1="103.73" x2="238.802" y2="160.641" gradientUnits="userSpaceOnUse">
<stop stop-color="white" stop-opacity="0.48"/>
<stop offset="1" stop-color="white" stop-opacity="0.16"/>
</linearGradient>
<linearGradient id="paint7_linear_1_1610" x1="238.802" y1="103.73" x2="238.802" y2="160.641" gradientUnits="userSpaceOnUse">
<stop stop-color="white"/>
<stop offset="1" stop-color="white" stop-opacity="0.08"/>
</linearGradient>
<linearGradient id="paint8_linear_1_1610" x1="277.326" y1="102.797" x2="26.4549" y2="102.797" gradientUnits="userSpaceOnUse">
<stop stop-color="white" stop-opacity="0"/>
<stop offset="0.1" stop-color="white" stop-opacity="0.5"/>
<stop offset="0.25" stop-color="white" stop-opacity="0.25"/>
<stop offset="0.25" stop-color="white" stop-opacity="0.25"/>
<stop offset="1" stop-color="white" stop-opacity="0"/>
</linearGradient>
<linearGradient id="paint9_linear_1_1610" x1="277.326" y1="161.152" x2="26.4549" y2="161.152" gradientUnits="userSpaceOnUse">
<stop stop-color="white" stop-opacity="0"/>
<stop offset="0.1" stop-color="white" stop-opacity="0.5"/>
<stop offset="0.25" stop-color="white" stop-opacity="0.25"/>
<stop offset="0.25" stop-color="white" stop-opacity="0.25"/>
<stop offset="1" stop-color="white" stop-opacity="0"/>
</linearGradient>
<linearGradient id="paint10_linear_1_1610" x1="210.404" y1="281.186" x2="210.404" y2="-18.064" gradientUnits="userSpaceOnUse">
<stop stop-color="white" stop-opacity="0"/>
<stop offset="0.25" stop-color="white" stop-opacity="0.25"/>
<stop offset="0.5" stop-color="white" stop-opacity="0.5"/>
<stop offset="0.75" stop-color="white" stop-opacity="0.25"/>
<stop offset="1" stop-color="white" stop-opacity="0"/>
</linearGradient>
<linearGradient id="paint11_linear_1_1610" x1="268.76" y1="281.186" x2="268.76" y2="-18.064" gradientUnits="userSpaceOnUse">
<stop stop-color="white" stop-opacity="0"/>
<stop offset="0.25" stop-color="white" stop-opacity="0.25"/>
<stop offset="0.5" stop-color="white" stop-opacity="0.5"/>
<stop offset="0.75" stop-color="white" stop-opacity="0.25"/>
<stop offset="1" stop-color="white" stop-opacity="0"/>
</linearGradient>
<linearGradient id="paint12_linear_1_1610" x1="278.698" y1="281.186" x2="278.698" y2="-18.064" gradientUnits="userSpaceOnUse">
<stop stop-color="white" stop-opacity="0"/>
<stop offset="0.25" stop-color="white" stop-opacity="0.25"/>
<stop offset="0.5" stop-color="white" stop-opacity="0.5"/>
<stop offset="0.75" stop-color="white" stop-opacity="0.25"/>
<stop offset="1" stop-color="white" stop-opacity="0"/>
</linearGradient>
<linearGradient id="paint13_linear_1_1610" x1="425.876" y1="475.535" x2="82.7554" y2="-210.3" gradientUnits="userSpaceOnUse">
<stop offset="0.28338" stop-color="white" stop-opacity="0"/>
<stop offset="0.396886" stop-color="white" stop-opacity="0.25"/>
<stop offset="0.5" stop-color="white" stop-opacity="0.5"/>
<stop offset="0.605383" stop-color="white" stop-opacity="0.25"/>
<stop offset="0.724523" stop-color="white" stop-opacity="0"/>
</linearGradient>
<linearGradient id="paint14_linear_1_1610" x1="-0.677055" y1="326.387" x2="370.372" y2="-52.2368" gradientUnits="userSpaceOnUse">
<stop offset="0.119435" stop-color="white" stop-opacity="0"/>
<stop offset="0.342096" stop-color="white" stop-opacity="0.25"/>
<stop offset="0.576982" stop-color="white" stop-opacity="0.5"/>
<stop offset="0.74161" stop-color="white" stop-opacity="0.25"/>
<stop offset="0.906641" stop-color="white" stop-opacity="0"/>
</linearGradient>
<linearGradient id="paint15_linear_1_1610" x1="584.233" y1="319.2" x2="-103.923" y2="-24.8662" gradientUnits="userSpaceOnUse">
<stop offset="0.114981" stop-color="white" stop-opacity="0"/>
<stop offset="0.296479" stop-color="white" stop-opacity="0.25"/>
<stop offset="0.5" stop-color="white" stop-opacity="0.5"/>
<stop offset="0.661887" stop-color="white" stop-opacity="0.25"/>
<stop offset="0.809619" stop-color="white" stop-opacity="0"/>
</linearGradient>
<linearGradient id="paint16_linear_1_1610" x1="336.797" y1="281" x2="336.797" y2="-18.25" gradientUnits="userSpaceOnUse">
<stop stop-color="white" stop-opacity="0"/>
<stop offset="0.25" stop-color="white" stop-opacity="0.25"/>
<stop offset="0.5" stop-color="white" stop-opacity="0.5"/>
<stop offset="0.75" stop-color="white" stop-opacity="0.25"/>
<stop offset="1" stop-color="white" stop-opacity="0"/>
</linearGradient>
<linearGradient id="paint17_linear_1_1610" x1="389.852" y1="281" x2="389.852" y2="-18.25" gradientUnits="userSpaceOnUse">
<stop stop-color="white" stop-opacity="0"/>
<stop offset="0.25" stop-color="white" stop-opacity="0.25"/>
<stop offset="0.5" stop-color="white" stop-opacity="0.5"/>
<stop offset="0.75" stop-color="white" stop-opacity="0.25"/>
<stop offset="1" stop-color="white" stop-opacity="0"/>
</linearGradient>
<linearGradient id="paint18_linear_1_1610" x1="446.246" y1="281" x2="446.246" y2="-18.25" gradientUnits="userSpaceOnUse">
<stop stop-color="white" stop-opacity="0"/>
<stop offset="0.25" stop-color="white" stop-opacity="0.25"/>
<stop offset="0.5" stop-color="white" stop-opacity="0.5"/>
<stop offset="0.75" stop-color="white" stop-opacity="0.25"/>
<stop offset="1" stop-color="white" stop-opacity="0"/>
</linearGradient>
<linearGradient id="paint19_linear_1_1610" x1="268.342" y1="159.717" x2="625.854" y2="159.717" gradientUnits="userSpaceOnUse">
<stop stop-color="white" stop-opacity="0"/>
<stop offset="0.22954" stop-color="white" stop-opacity="0.25"/>
<stop offset="0.461088" stop-color="white" stop-opacity="0.5"/>
<stop offset="0.74035" stop-color="white" stop-opacity="0.25"/>
<stop offset="1" stop-color="white" stop-opacity="0"/>
</linearGradient>
<linearGradient id="paint20_linear_1_1610" x1="268.342" y1="99.0762" x2="625.854" y2="99.0762" gradientUnits="userSpaceOnUse">
<stop stop-color="white" stop-opacity="0"/>
<stop offset="0.22954" stop-color="white" stop-opacity="0.25"/>
<stop offset="0.461088" stop-color="white" stop-opacity="0.5"/>
<stop offset="0.74035" stop-color="white" stop-opacity="0.25"/>
<stop offset="1" stop-color="white" stop-opacity="0"/>
</linearGradient>
<clipPath id="clip0_1_1610">
<rect width="640" height="264" fill="white"/>
</clipPath>
</defs>
</svg>
