<svg width="660" height="152" viewBox="0 0 660 152" fill="none" xmlns="http://www.w3.org/2000/svg">
<g clip-path="url(#clip0_1_1003)">
<path d="M511.304 28.2495L511.32 28.4467L513.322 51.935L532.681 28.3286L532.746 28.2495H548.268L547.91 28.6157L524.659 52.4565L547.921 79.9331L548.222 80.2885H532.737L532.672 80.1987L513.324 53.0952L511.32 80.0893L511.306 80.2885H500.205L500.223 80.0571L502.269 52.4848L500.223 28.4839L500.202 28.2495H511.304Z" stroke="url(#paint0_linear_1_1003)" stroke-width="0.431818"/>
<path d="M485.88 28.2524L485.935 28.3872L506.781 79.9956L506.902 80.2924H494.717L494.661 80.1606L489.965 69.0132H466.67L461.932 80.1606L461.876 80.2924H449.837L449.957 79.9956L470.805 28.3872L470.859 28.2524H485.88ZM470.49 60.0268H486.181L478.369 41.4819L470.49 60.0268Z" stroke="url(#paint1_linear_1_1003)" stroke-width="0.431818"/>
<path d="M430.201 28.2671C436.275 28.2671 441.324 29.7252 445.331 32.6567L445.707 32.935C449.548 35.8435 452.036 39.8078 453.169 44.8159L453.23 45.0796H440.703L440.652 44.936C439.944 42.9532 438.695 41.4219 436.902 40.3364L436.9 40.3354C435.156 39.2513 432.904 38.7007 430.128 38.7007C426.971 38.7007 424.332 39.394 422.2 40.768L422.197 40.77C420.062 42.0983 418.447 43.9971 417.352 46.4731L417.351 46.4741C416.255 48.9044 415.704 51.7965 415.704 55.1557C415.704 58.6126 416.255 61.5274 417.35 63.9077C418.445 66.287 420.035 68.0886 422.121 69.3208C424.208 70.5058 426.681 71.102 429.548 71.102C431.598 71.102 433.178 70.724 434.542 70.0337C435.91 69.342 437.073 68.3304 438.281 67.0424C440.149 65.0505 441.37 63.1268 442.633 60.0825H430.927V51.5327H454.045V80.3042H443.611V72.9301C443.384 73.2687 443.072 73.7222 442.704 74.2182C441.931 75.259 440.9 76.5085 439.894 77.2944C438.047 78.7365 435.746 79.4873 433.627 79.8784C431.507 80.2698 429.553 80.3042 428.389 80.3042C423.542 80.3042 419.268 79.6784 415.595 77.5239L415.592 77.5219C411.991 75.3321 409.181 72.7161 407.177 68.8071C405.178 64.9059 404.182 60.3534 404.182 55.1557C404.182 49.9088 405.203 45.2596 407.25 41.2143L407.25 41.2124C409.347 37.1661 412.347 33.9954 416.248 31.7036C420.152 29.4096 424.806 28.2671 430.201 28.2671Z" stroke="url(#paint2_linear_1_1003)" stroke-width="0.431818"/>
<path d="M345.208 56.3852L394.478 81.02L395.057 81.3091L394.768 80.7299L370.133 31.4604H351.479L345.208 37.7309V56.3852Z" stroke="url(#paint3_linear_1_1003)" stroke-width="0.431818"/>
<path d="M186.066 31.3012L403.27 31.3012" stroke="url(#paint4_linear_1_1003)" stroke-width="0.107955"/>
<path d="M186.066 81.6992H403.27" stroke="url(#paint5_linear_1_1003)" stroke-width="0.107955"/>
<path d="M345.042 -74.1587V184.932" stroke="url(#paint6_linear_1_1003)" stroke-width="0.107955"/>
<path d="M395.44 -74.1587V184.932" stroke="url(#paint7_linear_1_1003)" stroke-width="0.107955"/>
<path d="M404.023 -74.1587V184.932" stroke="url(#paint8_linear_1_1003)" stroke-width="0.107955"/>
<path d="M234.103 -240.823L531.177 352.974" stroke="url(#paint9_linear_1_1003)" stroke-width="0.107955"/>
<path d="M484.124 -104.144L162.869 223.668" stroke="url(#paint10_linear_1_1003)" stroke-width="0.107955"/>
<path d="M72.3274 -79.7427L668.133 218.15" stroke="url(#paint11_linear_1_1003)" stroke-width="0.107955"/>
<path d="M454.2 -74.3184V184.773" stroke="url(#paint12_linear_1_1003)" stroke-width="0.107955"/>
<path d="M500.019 -74.3184V184.773" stroke="url(#paint13_linear_1_1003)" stroke-width="0.107955"/>
<path d="M548.724 -74.3184V184.773" stroke="url(#paint14_linear_1_1003)" stroke-width="0.107955"/>
<path d="M705.045 80.4599H395.511" stroke="url(#paint15_linear_1_1003)" stroke-width="0.107955"/>
<path d="M705.045 28.0888L395.511 28.0888" stroke="url(#paint16_linear_1_1003)" stroke-width="0.107955"/>
</g>
<defs>
<linearGradient id="paint0_linear_1_1003" x1="537.63" y1="33.6733" x2="501.949" y2="80.073" gradientUnits="userSpaceOnUse">
<stop stop-color="white"/>
<stop offset="1" stop-color="white" stop-opacity="0"/>
</linearGradient>
<linearGradient id="paint1_linear_1_1003" x1="494.507" y1="33.6763" x2="460.875" y2="85.8264" gradientUnits="userSpaceOnUse">
<stop stop-color="white"/>
<stop offset="1" stop-color="white" stop-opacity="0"/>
</linearGradient>
<linearGradient id="paint2_linear_1_1003" x1="443.251" y1="33.6906" x2="408.001" y2="81.5784" gradientUnits="userSpaceOnUse">
<stop stop-color="white"/>
<stop offset="1" stop-color="white" stop-opacity="0"/>
</linearGradient>
<linearGradient id="paint3_linear_1_1003" x1="370" y1="31.6762" x2="370" y2="80.8266" gradientUnits="userSpaceOnUse">
<stop stop-color="white"/>
<stop offset="1" stop-color="white" stop-opacity="0.08"/>
</linearGradient>
<linearGradient id="paint4_linear_1_1003" x1="403.27" y1="30.8012" x2="186.609" y2="30.8012" gradientUnits="userSpaceOnUse">
<stop stop-color="white" stop-opacity="0"/>
<stop offset="0.1" stop-color="white" stop-opacity="0.5"/>
<stop offset="0.25" stop-color="white" stop-opacity="0.25"/>
<stop offset="0.25" stop-color="white" stop-opacity="0.25"/>
<stop offset="1" stop-color="white" stop-opacity="0"/>
</linearGradient>
<linearGradient id="paint5_linear_1_1003" x1="403.27" y1="81.1992" x2="186.609" y2="81.1992" gradientUnits="userSpaceOnUse">
<stop stop-color="white" stop-opacity="0"/>
<stop offset="0.1" stop-color="white" stop-opacity="0.5"/>
<stop offset="0.25" stop-color="white" stop-opacity="0.25"/>
<stop offset="0.25" stop-color="white" stop-opacity="0.25"/>
<stop offset="1" stop-color="white" stop-opacity="0"/>
</linearGradient>
<linearGradient id="paint6_linear_1_1003" x1="345.542" y1="184.932" x2="345.542" y2="-73.511" gradientUnits="userSpaceOnUse">
<stop stop-color="white" stop-opacity="0"/>
<stop offset="0.25" stop-color="white" stop-opacity="0.25"/>
<stop offset="0.5" stop-color="white" stop-opacity="0.5"/>
<stop offset="0.75" stop-color="white" stop-opacity="0.25"/>
<stop offset="1" stop-color="white" stop-opacity="0"/>
</linearGradient>
<linearGradient id="paint7_linear_1_1003" x1="395.94" y1="184.932" x2="395.94" y2="-73.511" gradientUnits="userSpaceOnUse">
<stop stop-color="white" stop-opacity="0"/>
<stop offset="0.25" stop-color="white" stop-opacity="0.25"/>
<stop offset="0.5" stop-color="white" stop-opacity="0.5"/>
<stop offset="0.75" stop-color="white" stop-opacity="0.25"/>
<stop offset="1" stop-color="white" stop-opacity="0"/>
</linearGradient>
<linearGradient id="paint8_linear_1_1003" x1="404.523" y1="184.932" x2="404.523" y2="-73.511" gradientUnits="userSpaceOnUse">
<stop stop-color="white" stop-opacity="0"/>
<stop offset="0.25" stop-color="white" stop-opacity="0.25"/>
<stop offset="0.5" stop-color="white" stop-opacity="0.5"/>
<stop offset="0.75" stop-color="white" stop-opacity="0.25"/>
<stop offset="1" stop-color="white" stop-opacity="0"/>
</linearGradient>
<linearGradient id="paint9_linear_1_1003" x1="531.624" y1="352.75" x2="235.293" y2="-239.562" gradientUnits="userSpaceOnUse">
<stop offset="0.28338" stop-color="white" stop-opacity="0"/>
<stop offset="0.396886" stop-color="white" stop-opacity="0.25"/>
<stop offset="0.5" stop-color="white" stop-opacity="0.5"/>
<stop offset="0.605383" stop-color="white" stop-opacity="0.25"/>
<stop offset="0.724523" stop-color="white" stop-opacity="0"/>
</linearGradient>
<linearGradient id="paint10_linear_1_1003" x1="163.226" y1="224.018" x2="483.678" y2="-102.975" gradientUnits="userSpaceOnUse">
<stop offset="0.119435" stop-color="white" stop-opacity="0"/>
<stop offset="0.342096" stop-color="white" stop-opacity="0.25"/>
<stop offset="0.576982" stop-color="white" stop-opacity="0.5"/>
<stop offset="0.74161" stop-color="white" stop-opacity="0.25"/>
<stop offset="0.906641" stop-color="white" stop-opacity="0"/>
</linearGradient>
<linearGradient id="paint11_linear_1_1003" x1="668.357" y1="217.702" x2="74.0405" y2="-79.4452" gradientUnits="userSpaceOnUse">
<stop offset="0.114981" stop-color="white" stop-opacity="0"/>
<stop offset="0.296479" stop-color="white" stop-opacity="0.25"/>
<stop offset="0.5" stop-color="white" stop-opacity="0.5"/>
<stop offset="0.661887" stop-color="white" stop-opacity="0.25"/>
<stop offset="0.809619" stop-color="white" stop-opacity="0"/>
</linearGradient>
<linearGradient id="paint12_linear_1_1003" x1="454.7" y1="184.773" x2="454.7" y2="-73.6707" gradientUnits="userSpaceOnUse">
<stop stop-color="white" stop-opacity="0"/>
<stop offset="0.25" stop-color="white" stop-opacity="0.25"/>
<stop offset="0.5" stop-color="white" stop-opacity="0.5"/>
<stop offset="0.75" stop-color="white" stop-opacity="0.25"/>
<stop offset="1" stop-color="white" stop-opacity="0"/>
</linearGradient>
<linearGradient id="paint13_linear_1_1003" x1="500.519" y1="184.773" x2="500.519" y2="-73.6707" gradientUnits="userSpaceOnUse">
<stop stop-color="white" stop-opacity="0"/>
<stop offset="0.25" stop-color="white" stop-opacity="0.25"/>
<stop offset="0.5" stop-color="white" stop-opacity="0.5"/>
<stop offset="0.75" stop-color="white" stop-opacity="0.25"/>
<stop offset="1" stop-color="white" stop-opacity="0"/>
</linearGradient>
<linearGradient id="paint14_linear_1_1003" x1="549.224" y1="184.773" x2="549.224" y2="-73.6707" gradientUnits="userSpaceOnUse">
<stop stop-color="white" stop-opacity="0"/>
<stop offset="0.25" stop-color="white" stop-opacity="0.25"/>
<stop offset="0.5" stop-color="white" stop-opacity="0.5"/>
<stop offset="0.75" stop-color="white" stop-opacity="0.25"/>
<stop offset="1" stop-color="white" stop-opacity="0"/>
</linearGradient>
<linearGradient id="paint15_linear_1_1003" x1="395.511" y1="79.9599" x2="704.272" y2="79.9599" gradientUnits="userSpaceOnUse">
<stop stop-color="white" stop-opacity="0"/>
<stop offset="0.22954" stop-color="white" stop-opacity="0.25"/>
<stop offset="0.461088" stop-color="white" stop-opacity="0.5"/>
<stop offset="0.74035" stop-color="white" stop-opacity="0.25"/>
<stop offset="1" stop-color="white" stop-opacity="0"/>
</linearGradient>
<linearGradient id="paint16_linear_1_1003" x1="395.511" y1="27.5888" x2="704.272" y2="27.5888" gradientUnits="userSpaceOnUse">
<stop stop-color="white" stop-opacity="0"/>
<stop offset="0.22954" stop-color="white" stop-opacity="0.25"/>
<stop offset="0.461088" stop-color="white" stop-opacity="0.5"/>
<stop offset="0.74035" stop-color="white" stop-opacity="0.25"/>
<stop offset="1" stop-color="white" stop-opacity="0"/>
</linearGradient>
<clipPath id="clip0_1_1003">
<rect width="660" height="152" fill="white"/>
</clipPath>
</defs>
</svg>
