<svg width="335" height="132" viewBox="0 0 335 132" fill="none" xmlns="http://www.w3.org/2000/svg">
<g clip-path="url(#clip0_1_1558)">
<path d="M221.499 28.8242L221.513 28.9932L223.253 49.3955L240.067 28.8916L240.123 28.8242H253.596L253.289 29.1377L233.096 49.8438L253.298 73.7061L253.556 74.0107H240.115L240.06 73.9336L223.254 50.3896L221.514 73.8398L221.501 74.0107H211.865L211.88 73.8125L213.657 49.8652L211.88 29.0244L211.863 28.8242H221.499Z" fill="url(#paint0_linear_1_1558)" stroke="url(#paint1_linear_1_1558)" stroke-width="0.37"/>
<path d="M199.42 28.8271L199.467 28.9424L217.571 73.7598L217.674 74.0146H207.098L207.05 73.9014L202.971 64.2188H182.738L178.622 73.9014L178.574 74.0146H168.125L168.228 73.7598L186.332 28.9424L186.379 28.8271H199.42ZM186.052 56.4209H199.687L192.899 40.3057L186.052 56.4209Z" fill="url(#paint2_linear_1_1558)" stroke="url(#paint3_linear_1_1558)" stroke-width="0.37"/>
<path d="M151.069 28.8403C156.344 28.8403 160.728 30.1062 164.207 32.6519H164.206C167.728 35.1977 169.998 38.7205 171.014 43.2095L171.065 43.4351H160.192L160.148 43.312C159.533 41.5896 158.448 40.2599 156.89 39.3169L156.888 39.3159C155.373 38.3741 153.416 37.896 151.006 37.896C148.264 37.896 145.972 38.4983 144.119 39.6919L144.117 39.6938C142.263 40.8477 140.86 42.4963 139.908 44.647V44.6479L139.74 44.5718L139.907 44.6479C138.956 46.7588 138.477 49.2706 138.477 52.188C138.477 55.1904 138.956 57.722 139.907 59.7896C140.858 61.8552 142.238 63.4194 144.048 64.4897L144.392 64.6772C146.131 65.5833 148.166 66.0395 150.502 66.0396C152.282 66.0396 153.656 65.7106 154.841 65.1108C156.028 64.51 157.039 63.6316 158.088 62.5132C159.711 60.7824 160.771 59.1102 161.869 56.4644H151.702V49.0444H171.774V74.0249H162.717V67.6167C162.52 67.9114 162.247 68.307 161.925 68.7407C161.254 69.6446 160.359 70.7303 159.486 71.4126C157.882 72.6646 155.884 73.3152 154.044 73.6548C152.203 73.9947 150.506 74.0249 149.495 74.0249C145.286 74.0249 141.576 73.4814 138.387 71.6108L138.384 71.6089C135.257 69.7073 132.817 67.4366 131.077 64.0425C129.341 60.6549 128.477 56.7016 128.477 52.188C128.477 47.6319 129.363 43.5951 131.14 40.0825L131.141 40.0806C132.961 36.5671 135.566 33.8137 138.953 31.8237C142.344 29.8319 146.385 28.8404 151.069 28.8403Z" fill="url(#paint4_linear_1_1558)" stroke="url(#paint5_linear_1_1558)" stroke-width="0.37"/>
<path d="M77.262 53.2539L77.3645 53.3047L120.047 74.6465L120.544 74.8945L120.295 74.3984L98.9543 31.7148L98.9026 31.6133H82.7053L82.6516 31.667L77.3157 37.002L77.262 37.0566V53.2539Z" fill="url(#paint6_linear_1_1558)" stroke="url(#paint7_linear_1_1558)" stroke-width="0.37"/>
<path d="M-60.9429 31.4727L127.682 31.4727" stroke="url(#paint8_linear_1_1558)" stroke-width="0.09375"/>
<path d="M-60.9429 75.2393H127.682" stroke="url(#paint9_linear_1_1558)" stroke-width="0.09375"/>
<path d="M77.115 -60.1108V164.889" stroke="url(#paint10_linear_1_1558)" stroke-width="0.09375"/>
<path d="M120.882 -60.1108V164.889" stroke="url(#paint11_linear_1_1558)" stroke-width="0.09375"/>
<path d="M128.336 -60.1108V164.889" stroke="url(#paint12_linear_1_1558)" stroke-width="0.09375"/>
<path d="M-19.2263 -204.846L238.759 310.819" stroke="url(#paint13_linear_1_1558)" stroke-width="0.09375"/>
<path d="M197.896 -86.1514L-81.0881 198.528" stroke="url(#paint14_linear_1_1558)" stroke-width="0.09375"/>
<path d="M-159.716 -64.9609L357.695 193.735" stroke="url(#paint15_linear_1_1558)" stroke-width="0.09375"/>
<path d="M171.91 -60.25V164.75" stroke="url(#paint16_linear_1_1558)" stroke-width="0.09375"/>
<path d="M211.701 -60.25V164.75" stroke="url(#paint17_linear_1_1558)" stroke-width="0.09375"/>
<path d="M253.997 -60.25V164.75" stroke="url(#paint18_linear_1_1558)" stroke-width="0.09375"/>
<path d="M389.75 74.1626H120.944" stroke="url(#paint19_linear_1_1558)" stroke-width="0.09375"/>
<path d="M389.75 28.6821L120.944 28.6821" stroke="url(#paint20_linear_1_1558)" stroke-width="0.09375"/>
</g>
<defs>
<linearGradient id="paint0_linear_1_1558" x1="232.611" y1="29.0088" x2="232.611" y2="73.826" gradientUnits="userSpaceOnUse">
<stop stop-color="white" stop-opacity="0.48"/>
<stop offset="1" stop-color="white" stop-opacity="0.16"/>
</linearGradient>
<linearGradient id="paint1_linear_1_1558" x1="244.363" y1="33.5315" x2="213.377" y2="73.826" gradientUnits="userSpaceOnUse">
<stop stop-color="white"/>
<stop offset="1" stop-color="white" stop-opacity="0"/>
</linearGradient>
<linearGradient id="paint2_linear_1_1558" x1="192.9" y1="29.0117" x2="192.9" y2="73.8294" gradientUnits="userSpaceOnUse">
<stop stop-color="white" stop-opacity="0.48"/>
<stop offset="1" stop-color="white" stop-opacity="0.16"/>
</linearGradient>
<linearGradient id="paint3_linear_1_1558" x1="206.914" y1="33.5345" x2="177.707" y2="78.8227" gradientUnits="userSpaceOnUse">
<stop stop-color="white"/>
<stop offset="1" stop-color="white" stop-opacity="0"/>
</linearGradient>
<linearGradient id="paint4_linear_1_1558" x1="150.125" y1="29.0249" x2="150.125" y2="73.8402" gradientUnits="userSpaceOnUse">
<stop stop-color="white" stop-opacity="0.48"/>
<stop offset="1" stop-color="white" stop-opacity="0.16"/>
</linearGradient>
<linearGradient id="paint5_linear_1_1558" x1="162.402" y1="33.5474" x2="131.79" y2="75.1342" gradientUnits="userSpaceOnUse">
<stop stop-color="white"/>
<stop offset="1" stop-color="white" stop-opacity="0"/>
</linearGradient>
<linearGradient id="paint6_linear_1_1558" x1="98.7885" y1="31.7979" x2="98.7885" y2="74.481" gradientUnits="userSpaceOnUse">
<stop stop-color="white" stop-opacity="0.48"/>
<stop offset="1" stop-color="white" stop-opacity="0.16"/>
</linearGradient>
<linearGradient id="paint7_linear_1_1558" x1="98.7885" y1="31.7979" x2="98.7885" y2="74.481" gradientUnits="userSpaceOnUse">
<stop stop-color="white"/>
<stop offset="1" stop-color="white" stop-opacity="0.08"/>
</linearGradient>
<linearGradient id="paint8_linear_1_1558" x1="127.682" y1="30.9727" x2="-60.4713" y2="30.9727" gradientUnits="userSpaceOnUse">
<stop stop-color="white" stop-opacity="0"/>
<stop offset="0.1" stop-color="white" stop-opacity="0.5"/>
<stop offset="0.25" stop-color="white" stop-opacity="0.25"/>
<stop offset="0.25" stop-color="white" stop-opacity="0.25"/>
<stop offset="1" stop-color="white" stop-opacity="0"/>
</linearGradient>
<linearGradient id="paint9_linear_1_1558" x1="127.682" y1="74.7393" x2="-60.4713" y2="74.7393" gradientUnits="userSpaceOnUse">
<stop stop-color="white" stop-opacity="0"/>
<stop offset="0.1" stop-color="white" stop-opacity="0.5"/>
<stop offset="0.25" stop-color="white" stop-opacity="0.25"/>
<stop offset="0.25" stop-color="white" stop-opacity="0.25"/>
<stop offset="1" stop-color="white" stop-opacity="0"/>
</linearGradient>
<linearGradient id="paint10_linear_1_1558" x1="77.615" y1="164.889" x2="77.615" y2="-59.5483" gradientUnits="userSpaceOnUse">
<stop stop-color="white" stop-opacity="0"/>
<stop offset="0.25" stop-color="white" stop-opacity="0.25"/>
<stop offset="0.5" stop-color="white" stop-opacity="0.5"/>
<stop offset="0.75" stop-color="white" stop-opacity="0.25"/>
<stop offset="1" stop-color="white" stop-opacity="0"/>
</linearGradient>
<linearGradient id="paint11_linear_1_1558" x1="121.382" y1="164.889" x2="121.382" y2="-59.5483" gradientUnits="userSpaceOnUse">
<stop stop-color="white" stop-opacity="0"/>
<stop offset="0.25" stop-color="white" stop-opacity="0.25"/>
<stop offset="0.5" stop-color="white" stop-opacity="0.5"/>
<stop offset="0.75" stop-color="white" stop-opacity="0.25"/>
<stop offset="1" stop-color="white" stop-opacity="0"/>
</linearGradient>
<linearGradient id="paint12_linear_1_1558" x1="128.836" y1="164.889" x2="128.836" y2="-59.5483" gradientUnits="userSpaceOnUse">
<stop stop-color="white" stop-opacity="0"/>
<stop offset="0.25" stop-color="white" stop-opacity="0.25"/>
<stop offset="0.5" stop-color="white" stop-opacity="0.5"/>
<stop offset="0.75" stop-color="white" stop-opacity="0.25"/>
<stop offset="1" stop-color="white" stop-opacity="0"/>
</linearGradient>
<linearGradient id="paint13_linear_1_1558" x1="239.206" y1="310.595" x2="-18.1342" y2="-203.781" gradientUnits="userSpaceOnUse">
<stop offset="0.28338" stop-color="white" stop-opacity="0"/>
<stop offset="0.396886" stop-color="white" stop-opacity="0.25"/>
<stop offset="0.5" stop-color="white" stop-opacity="0.5"/>
<stop offset="0.605383" stop-color="white" stop-opacity="0.25"/>
<stop offset="0.724523" stop-color="white" stop-opacity="0"/>
</linearGradient>
<linearGradient id="paint14_linear_1_1558" x1="-80.731" y1="198.878" x2="197.556" y2="-85.0897" gradientUnits="userSpaceOnUse">
<stop offset="0.119435" stop-color="white" stop-opacity="0"/>
<stop offset="0.342096" stop-color="white" stop-opacity="0.25"/>
<stop offset="0.576982" stop-color="white" stop-opacity="0.5"/>
<stop offset="0.74161" stop-color="white" stop-opacity="0.25"/>
<stop offset="0.906641" stop-color="white" stop-opacity="0"/>
</linearGradient>
<linearGradient id="paint15_linear_1_1558" x1="357.918" y1="193.288" x2="-158.199" y2="-64.7614" gradientUnits="userSpaceOnUse">
<stop offset="0.114981" stop-color="white" stop-opacity="0"/>
<stop offset="0.296479" stop-color="white" stop-opacity="0.25"/>
<stop offset="0.5" stop-color="white" stop-opacity="0.5"/>
<stop offset="0.661887" stop-color="white" stop-opacity="0.25"/>
<stop offset="0.809619" stop-color="white" stop-opacity="0"/>
</linearGradient>
<linearGradient id="paint16_linear_1_1558" x1="172.41" y1="164.75" x2="172.41" y2="-59.6875" gradientUnits="userSpaceOnUse">
<stop stop-color="white" stop-opacity="0"/>
<stop offset="0.25" stop-color="white" stop-opacity="0.25"/>
<stop offset="0.5" stop-color="white" stop-opacity="0.5"/>
<stop offset="0.75" stop-color="white" stop-opacity="0.25"/>
<stop offset="1" stop-color="white" stop-opacity="0"/>
</linearGradient>
<linearGradient id="paint17_linear_1_1558" x1="212.201" y1="164.75" x2="212.201" y2="-59.6875" gradientUnits="userSpaceOnUse">
<stop stop-color="white" stop-opacity="0"/>
<stop offset="0.25" stop-color="white" stop-opacity="0.25"/>
<stop offset="0.5" stop-color="white" stop-opacity="0.5"/>
<stop offset="0.75" stop-color="white" stop-opacity="0.25"/>
<stop offset="1" stop-color="white" stop-opacity="0"/>
</linearGradient>
<linearGradient id="paint18_linear_1_1558" x1="254.497" y1="164.75" x2="254.497" y2="-59.6875" gradientUnits="userSpaceOnUse">
<stop stop-color="white" stop-opacity="0"/>
<stop offset="0.25" stop-color="white" stop-opacity="0.25"/>
<stop offset="0.5" stop-color="white" stop-opacity="0.5"/>
<stop offset="0.75" stop-color="white" stop-opacity="0.25"/>
<stop offset="1" stop-color="white" stop-opacity="0"/>
</linearGradient>
<linearGradient id="paint19_linear_1_1558" x1="120.944" y1="73.6626" x2="389.078" y2="73.6626" gradientUnits="userSpaceOnUse">
<stop stop-color="white" stop-opacity="0"/>
<stop offset="0.22954" stop-color="white" stop-opacity="0.25"/>
<stop offset="0.461088" stop-color="white" stop-opacity="0.5"/>
<stop offset="0.74035" stop-color="white" stop-opacity="0.25"/>
<stop offset="1" stop-color="white" stop-opacity="0"/>
</linearGradient>
<linearGradient id="paint20_linear_1_1558" x1="120.944" y1="28.1821" x2="389.078" y2="28.1821" gradientUnits="userSpaceOnUse">
<stop stop-color="white" stop-opacity="0"/>
<stop offset="0.22954" stop-color="white" stop-opacity="0.25"/>
<stop offset="0.461088" stop-color="white" stop-opacity="0.5"/>
<stop offset="0.74035" stop-color="white" stop-opacity="0.25"/>
<stop offset="1" stop-color="white" stop-opacity="0"/>
</linearGradient>
<clipPath id="clip0_1_1558">
<rect width="335" height="132" fill="white"/>
</clipPath>
</defs>
</svg>
